<svg xmlns="http://www.w3.org/2000/svg"><symbol id="hive" viewBox="0 0 24 24"><g fill="none" stroke="currentColor" stroke-width="1.7" stroke-linecap="round" stroke-linejoin="round"><path d="M12 4.6 15.64 6.7v4.2L12 13 8.36 10.9V6.7z" fill="currentColor" fill-opacity=".28"/><path d="M8.36 10.9 12 13v4.2l-3.64 2.1-3.64-2.1V13z"/><path d="M15.64 10.9 19.28 13v4.2l-3.64 2.1L12 17.2V13z"/></g></symbol><symbol id="pc-connect" viewBox="0 0 24 24"><g fill="none" stroke="currentColor" stroke-width="1.7" stroke-linecap="round" stroke-linejoin="round"><circle cx="12" cy="12.3" r="2.5" fill="currentColor" stroke="none"/><circle cx="12" cy="4.6" r="2.1"/><circle cx="4.9" cy="17" r="2.1"/><circle cx="19.1" cy="17" r="2.1"/><path d="M12 6.7v3.1M6.7 15.8l3.2-2M17.3 15.8l-3.2-2"/></g></symbol><symbol id="pc-risk" viewBox="0 0 24 24"><g fill="none" stroke="currentColor" stroke-width="1.7" stroke-linecap="round" stroke-linejoin="round"><path d="M12 2.8 19.5 5.8v5.7c0 4.6-3.1 8.2-7.5 9.7-4.4-1.5-7.5-5.1-7.5-9.7V5.8z"/><path d="M7.2 12.4h2.2l1.4-2.9 2.3 5.6 1.4-2.7h2.3"/></g></symbol><symbol id="pc-ventures" viewBox="0 0 24 24"><g fill="none" stroke="currentColor" stroke-width="1.7" stroke-linecap="round" stroke-linejoin="round"><path d="M4 20.2h16"/><path d="M6.5 20.2v-3M11 20.2v-5M15.5 20.2v-3.6"/><path d="m4.5 12.2 4.6-4.4 3.3 2.9 6.6-6.2"/><path d="M15.3 4.5h3.7v3.7"/></g></symbol><symbol id="expand" viewBox="0 0 24 24"><g fill="none" stroke="currentColor" stroke-width="2" stroke-linecap="round" stroke-linejoin="round"><path d="M4 9V4h5M20 9V4h-5M4 15v5h5M20 15v5h-5"/></g></symbol><symbol id="bell" viewBox="0 0 24 24"><g fill="none" stroke="currentColor" stroke-width="1.8" stroke-linecap="round" stroke-linejoin="round"><path d="M6 16.5V11a6 6 0 1 1 12 0v5.5l1.6 2H4.4z"/><path d="M10 20.6a2.2 2.2 0 0 0 4 0"/></g></symbol><symbol id="sparkle" viewBox="0 0 24 24"><g fill="none" stroke="currentColor" stroke-width="1.8" stroke-linecap="round" stroke-linejoin="round"><path d="M11 3.5 12.9 9l5.6 1.9-5.6 1.9L11 18.4 9.1 12.8 3.5 10.9 9.1 9z"/><path d="M18.5 15.5l.8 2 2 .8-2 .8-.8 2-.8-2-2-.8 2-.8z"/></g></symbol><symbol id="check" viewBox="0 0 24 24"><g fill="none" stroke="currentColor" stroke-width="2.4" stroke-linecap="round" stroke-linejoin="round"><path d="M5 12.5l4.2 4.2L19 7"/></g></symbol><symbol id="calendar" viewBox="0 0 24 24"><g fill="none" stroke="currentColor" stroke-width="1.8" stroke-linecap="round" stroke-linejoin="round"><rect x="4" y="5.5" width="16" height="14.5" rx="2.5"/><path d="M4 10h16M8.5 3.5v4M15.5 3.5v4"/></g></symbol><symbol id="hexnet" viewBox="0 0 24 24"><g fill="none" stroke="currentColor" stroke-width="1.8" stroke-linecap="round" stroke-linejoin="round"><path d="M12 2.8 20 7.4v9.2L12 21.2 4 16.6V7.4z"/><circle cx="12" cy="12" r="2.2"/><path d="M12 9.8V5.6M13.9 13.1l3.6 2.1M10.1 13.1l-3.6 2.1"/></g></symbol><symbol id="search" viewBox="0 0 24 24"><g fill="none" stroke="currentColor" stroke-width="1.8" stroke-linecap="round" stroke-linejoin="round"><circle cx="10.5" cy="10.5" r="6"/><path d="m15 15 5.5 5.5"/></g></symbol><symbol id="meet" viewBox="0 0 24 24"><g fill="none" stroke="currentColor" stroke-width="1.8" stroke-linecap="round" stroke-linejoin="round"><path d="M4 9h12v4.5A5.5 5.5 0 0 1 10.5 19h-1A5.5 5.5 0 0 1 4 13.5z"/><path d="M16 10.5h1.5a2.5 2.5 0 0 1 0 5H16"/><path d="M8 3.5v2M12 3.5v2"/></g></symbol><symbol id="help" viewBox="0 0 24 24"><g fill="none" stroke="currentColor" stroke-width="1.8" stroke-linecap="round" stroke-linejoin="round"><circle cx="12" cy="12" r="8.5"/><circle cx="12" cy="12" r="3.5"/><path d="m6 6 3.5 3.5M18 6l-3.5 3.5M6 18l3.5-3.5M18 18l-3.5-3.5"/></g></symbol><symbol id="learn" viewBox="0 0 24 24"><g fill="none" stroke="currentColor" stroke-width="1.8" stroke-linecap="round" stroke-linejoin="round"><path d="M2.5 9 12 4.5 21.5 9 12 13.5z"/><path d="M6.5 11v4.5c0 1.6 2.5 3 5.5 3s5.5-1.4 5.5-3V11"/><path d="M21.5 9v5"/></g></symbol><symbol id="belong" viewBox="0 0 24 24"><g fill="none" stroke="currentColor" stroke-width="1.8" stroke-linecap="round" stroke-linejoin="round"><circle cx="9" cy="8.5" r="3"/><path d="M3.5 19c0-3 2.5-5 5.5-5s5.5 2 5.5 5"/><circle cx="17" cy="9.5" r="2.4"/><path d="M15.5 14.3c.5-.2 1-.3 1.5-.3 2.3 0 4 1.6 4 4.3"/></g></symbol><symbol id="profile" viewBox="0 0 24 24"><g fill="none" stroke="currentColor" stroke-width="1.8" stroke-linecap="round" stroke-linejoin="round"><circle cx="12" cy="8" r="3.6"/><path d="M4.5 20c.8-4 3.8-6 7.5-6s6.7 2 7.5 6"/></g></symbol><symbol id="shield" viewBox="0 0 24 24"><g fill="none" stroke="currentColor" stroke-width="1.8" stroke-linecap="round" stroke-linejoin="round"><path d="M12 2.8 19.5 5.8v5.7c0 4.6-3.1 8.2-7.5 9.7-4.4-1.5-7.5-5.1-7.5-9.7V5.8z"/><path d="M12 8v4.5M12 15.8v.2"/></g></symbol><symbol id="radar" viewBox="0 0 24 24"><g fill="none" stroke="currentColor" stroke-width="1.8" stroke-linecap="round" stroke-linejoin="round"><circle cx="12" cy="12" r="1.8"/><path d="M8.2 8.2a5.4 5.4 0 0 0 0 7.6M15.8 8.2a5.4 5.4 0 0 1 0 7.6M5.3 5.3a9.5 9.5 0 0 0 0 13.4M18.7 5.3a9.5 9.5 0 0 1 0 13.4"/></g></symbol><symbol id="layers" viewBox="0 0 24 24"><g fill="none" stroke="currentColor" stroke-width="1.8" stroke-linecap="round" stroke-linejoin="round"><path d="m12 3.5 9 4.8-9 4.8-9-4.8z"/><path d="m3 12.2 9 4.8 9-4.8"/><path d="m3 16.1 9 4.8 9-4.8"/></g></symbol><symbol id="investigate" viewBox="0 0 24 24"><g fill="none" stroke="currentColor" stroke-width="1.8" stroke-linecap="round" stroke-linejoin="round"><path d="M13.5 3.5h-7A1.5 1.5 0 0 0 5 5v14a1.5 1.5 0 0 0 1.5 1.5h5"/><path d="M13.5 3.5V8H18M13.5 3.5 18 8v2.5"/><circle cx="16" cy="15.5" r="3"/><path d="m18.2 17.7 2.3 2.3"/></g></symbol><symbol id="actions" viewBox="0 0 24 24"><g fill="none" stroke="currentColor" stroke-width="1.8" stroke-linecap="round" stroke-linejoin="round"><path d="M10 6.5h10M10 12h10M10 17.5h10"/><path d="m3.5 6.5 1.5 1.5 2.5-3M3.5 12l1.5 1.5 2.5-3M3.5 17.5l1.5 1.5 2.5-3"/></g></symbol><symbol id="report" viewBox="0 0 24 24"><g fill="none" stroke="currentColor" stroke-width="1.8" stroke-linecap="round" stroke-linejoin="round"><path d="M14 3.5H6.5A1.5 1.5 0 0 0 5 5v14a1.5 1.5 0 0 0 1.5 1.5h11A1.5 1.5 0 0 0 19 19V8.5z"/><path d="M14 3.5v5h5"/><path d="M8.5 17v-3M12 17v-5M15.5 17v-2"/></g></symbol><symbol id="portfolio" viewBox="0 0 24 24"><g fill="none" stroke="currentColor" stroke-width="1.8" stroke-linecap="round" stroke-linejoin="round"><rect x="3" y="7" width="18" height="13" rx="2"/><path d="M8.5 7V5.5A1.5 1.5 0 0 1 10 4h4a1.5 1.5 0 0 1 1.5 1.5V7"/><path d="M3 12.5h18"/></g></symbol><symbol id="idea" viewBox="0 0 24 24"><g fill="none" stroke="currentColor" stroke-width="1.8" stroke-linecap="round" stroke-linejoin="round"><path d="M9 18h6M10 21h4"/><path d="M12 3a6 6 0 0 0-3.5 10.9c.6.5 1 1.2 1 2V16h5v-.1c0-.8.4-1.5 1-2A6 6 0 0 0 12 3z"/></g></symbol><symbol id="explore" viewBox="0 0 24 24"><g fill="none" stroke="currentColor" stroke-width="1.8" stroke-linecap="round" stroke-linejoin="round"><circle cx="12" cy="12" r="8.5"/><path d="m15.5 8.5-2 5-5 2 2-5z"/></g></symbol><symbol id="submit" viewBox="0 0 24 24"><g fill="none" stroke="currentColor" stroke-width="1.8" stroke-linecap="round" stroke-linejoin="round"><path d="M12 15V4M7.5 8.5 12 4l4.5 4.5"/><path d="M4 14v4.5A1.5 1.5 0 0 0 5.5 20h13a1.5 1.5 0 0 0 1.5-1.5V14"/></g></symbol><symbol id="teams" viewBox="0 0 24 24"><g fill="none" stroke="currentColor" stroke-width="1.8" stroke-linecap="round" stroke-linejoin="round"><rect x="9" y="3" width="6" height="5" rx="1"/><rect x="3" y="16" width="6" height="5" rx="1"/><rect x="15" y="16" width="6" height="5" rx="1"/><path d="M12 8v4M6 16v-2h12v2"/></g></symbol><symbol id="trend" viewBox="0 0 24 24"><g fill="none" stroke="currentColor" stroke-width="1.8" stroke-linecap="round" stroke-linejoin="round"><path d="M3.5 19.5h17"/><path d="m4.5 15 5-5 3.5 3.5 6.5-6.5"/><path d="M15 7h4.5v4.5"/></g></symbol><symbol id="chat" viewBox="0 0 24 24"><g fill="none" stroke="currentColor" stroke-width="1.8" stroke-linecap="round" stroke-linejoin="round"><path d="M5 5.5h14a1.5 1.5 0 0 1 1.5 1.5v8.5A1.5 1.5 0 0 1 19 17h-8l-4.5 3.5V17H5a1.5 1.5 0 0 1-1.5-1.5V7A1.5 1.5 0 0 1 5 5.5z"/><path d="M8 10h8M8 13h5"/></g></symbol></svg>